<?xml version="1.0" encoding="UTF-8"?><svg id="Layer_1" xmlns="http://www.w3.org/2000/svg" viewBox="0 0 260.19 63.32"><defs><style>.cls-1{fill:#67c8d4;}.cls-2{fill:#00637c;}</style></defs><g><g><path class="cls-2" d="m35.75,43.7l-3.32.65-4.21-22.86-.03-.03c-.53,1.1-1.71,3.66-3.53,7.67-1.82,4.01-3.6,8.03-5.32,12.07h-2.81c-1.62-3.74-3.4-7.77-5.36-12.11-1.96-4.34-3.1-6.87-3.44-7.59h-.04c-.08.35-.63,2.95-1.65,7.79-1.02,4.84-1.99,9.85-2.92,15.03l-3.13-.57c1.36-5.85,2.63-11.65,3.81-17.4,1.18-5.74,1.83-8.86,1.94-9.35l3.24-.47c.14.31,1.1,2.5,2.88,6.56,1.79,4.06,3.89,8.74,6.31,14.04h.12c1.85-4.16,3.8-8.58,5.87-13.28,2.06-4.7,3.14-7.14,3.22-7.31l3.08.25c.04.3.6,3.28,1.69,8.93,1.09,5.66,2.29,11.66,3.61,18Z"/><path class="cls-2" d="m45.69,44.11h-3.36c.01-.82.03-2.27.06-4.36.03-2.09.04-5.09.04-9,0-1.55,0-3.58-.02-6.09-.01-2.51-.04-5.12-.08-7.82h3.36c-.03,1.94-.05,4.2-.07,6.77-.02,2.57-.03,4.68-.03,6.31,0,4.13.01,7.32.04,9.58.03,2.26.05,3.8.06,4.61Z"/><path class="cls-2" d="m78.65,16.83c-.03,2.13-.05,4.57-.07,7.31-.02,2.74-.03,4.72-.03,5.93,0,3.86.01,6.92.04,9.2.03,2.28.04,3.49.04,3.64l-2.71,1.32c-4.1-5.54-7.93-10.54-11.5-15-3.57-4.46-5.63-7.04-6.18-7.73l-.04.02c0,3.64.02,8.11.07,13.41.05,5.3.08,8.36.09,9.18h-3.18c.01-.34.03-1.55.06-3.63.03-2.08.04-4.97.04-8.68,0-1.48,0-3.45-.02-5.9-.01-2.45-.04-5.05-.08-7.79l3.1-1.47c.24.31,2.33,2.95,6.24,7.92,3.92,4.97,7.61,9.58,11.07,13.84l.04-.02c0-2.09-.03-5.61-.08-10.56-.05-4.95-.08-8.61-.08-11h3.18Z"/><path class="cls-2" d="m110.33,16.83c0,2.61-.01,4.76-.04,6.47-.03,1.71-.04,3.19-.04,4.45,0,1.55,0,2.87,0,3.96s.01,2.04.01,2.84c0,1.58-.23,2.96-.7,4.17-.47,1.2-1.18,2.25-2.13,3.15-.95.9-2.12,1.6-3.5,2.11-1.39.51-2.99.76-4.81.76s-3.42-.25-4.81-.75c-1.39-.5-2.56-1.21-3.52-2.12-.95-.9-1.66-1.95-2.13-3.15-.47-1.2-.7-2.59-.7-4.17,0-.8,0-1.75.01-2.84s.01-2.41.01-3.96c0-1.26-.01-2.75-.04-4.45-.03-1.7-.04-3.86-.04-6.47h3.36c-.01.34-.03,1.5-.05,3.47-.02,1.98-.03,4.57-.03,7.79,0,.98,0,1.99.01,3.04,0,1.05,0,2.12,0,3.22,0,2.49.71,4.37,2.14,5.65,1.43,1.28,3.35,1.93,5.79,1.93,2.63,0,4.61-.61,5.93-1.83s1.98-3.14,1.98-5.74c0-1.1,0-2.17,0-3.22s.01-2.06.01-3.04c0-3.22-.01-5.85-.04-7.9-.03-2.05-.04-3.17-.04-3.36h3.36Z"/><path class="cls-2" d="m164.24,41.19l-3.17,1.64c-.06-.15-.49-1.16-1.3-3.03-.81-1.87-1.89-4.28-3.23-7.23h-12.06c-1.43,3.16-2.54,5.62-3.31,7.35-.78,1.74-1.21,2.71-1.29,2.91l-2.73-1.48c.35-.71,1.81-3.82,4.37-9.34,2.56-5.52,5.22-11.32,7.98-17.4h2.65c2.72,6.08,5.38,11.97,8.01,17.68s3.99,8.67,4.09,8.9Zm-8.85-11.24c-.72-1.66-1.48-3.39-2.28-5.2-.8-1.81-1.64-3.7-2.52-5.67l-.08.02c-.68,1.49-1.51,3.33-2.47,5.51-.96,2.18-1.76,3.96-2.39,5.34v.02s9.75,0,9.75,0v-.02Z"/><path class="cls-2" d="m192,28.8c0,2.39-.59,4.49-1.76,6.29-1.17,1.81-2.7,3.26-4.57,4.36-1.63.96-3.44,1.7-5.44,2.2s-4.25.75-6.75.75c-.95,0-1.88-.01-2.79-.04-.91-.03-1.41-.04-1.51-.04,0-.07.02-1.63.05-4.7.03-3.06.05-5.97.05-8.71,0-1.45,0-3.32,0-5.6,0-2.28-.04-5.05-.09-8.31.14,0,.76,0,1.86-.02,1.11-.01,1.7-.02,1.78-.02,2.81,0,5.3.25,7.48.75,2.18.5,4.12,1.3,5.83,2.38,1.98,1.26,3.45,2.78,4.42,4.55s1.45,3.82,1.45,6.14Zm-3.46-.02c0-1.77-.38-3.37-1.14-4.81-.76-1.44-1.96-2.67-3.6-3.71-1.53-.96-3.23-1.64-5.1-2.02s-3.56-.57-5.08-.57h-1.06c-.03,2.15-.04,3.93-.05,5.34,0,1.41-.01,2.54-.01,3.38,0,.6,0,1.99.01,4.19,0,2.19.02,5.23.03,9.12h1.04c1.76,0,3.53-.21,5.31-.62,1.78-.41,3.28-.99,4.5-1.72,1.55-.92,2.79-2.1,3.73-3.51.94-1.42,1.41-3.11,1.41-5.06Z"/><path class="cls-2" d="m222.32,41.19l-3.17,1.64c-.06-.15-.49-1.16-1.3-3.03-.81-1.87-1.89-4.28-3.23-7.23h-12.06c-1.43,3.16-2.54,5.62-3.31,7.35-.78,1.74-1.21,2.71-1.29,2.91l-2.73-1.48c.35-.71,1.81-3.82,4.37-9.34,2.56-5.52,5.22-11.32,7.98-17.4h2.65c2.72,6.08,5.38,11.97,8.01,17.68,2.62,5.7,3.99,8.67,4.09,8.9Zm-8.85-11.24c-.72-1.66-1.48-3.39-2.28-5.2-.8-1.81-1.64-3.7-2.52-5.67l-.08.02c-.68,1.49-1.51,3.33-2.47,5.51-.96,2.18-1.76,3.96-2.39,5.34v.02s9.75,0,9.75,0v-.02Z"/><path class="cls-2" d="m260.19,41.87l-3.32.65-4.21-22.86-.03-.03c-.53,1.1-1.71,3.66-3.53,7.67-1.82,4.01-3.6,8.03-5.32,12.07h-2.81c-1.62-3.74-3.4-7.77-5.36-12.11-1.96-4.34-3.1-6.87-3.44-7.59h-.04c-.08.35-.63,2.95-1.65,7.79-1.02,4.84-1.99,9.85-2.92,15.03l-3.13-.57c1.36-5.85,2.63-11.65,3.81-17.4,1.18-5.74,1.83-8.86,1.94-9.35l3.24-.47c.14.31,1.1,2.5,2.88,6.56,1.79,4.06,3.89,8.74,6.31,14.04h.12c1.85-4.16,3.8-8.58,5.87-13.28,2.06-4.7,3.14-7.14,3.22-7.31l3.08.25c.04.3.6,3.28,1.69,8.93,1.09,5.66,2.29,11.66,3.61,18Z"/></g><path class="cls-2" d="m115.1,50.98c.91,1.08,1.05,2.44.15,3.19-.31.26-.95.43-1.4.25.1,1.39,1.01,2.84,2.14,4.19,3.18,3.78,9.14,4.5,13.99.42,8.17-6.87,1.8-19.09-4.83-27.17-10.58-12.87-13.96-23.99-6.86-29.95,3.14-2.64,8.35-2.58,10.8.34,1.91,2.27,1.33,4.78-.51,6.33-.37-1.81-.87-3.05-2.33-4.78-2.18-2.59-4.66-2.63-6.41-1.16-7.01,5.88,1.58,17.11,8.58,26.54,11.54,15.57,8.48,25.15,1.79,30.77-5.43,4.56-12.75,3.33-17.84-2.72-2.09-2.49-2.64-5.25-1.07-6.57,1.35-1.13,2.79-.87,3.79.32Z"/></g><g><path class="cls-1" d="m159.53,63.3c-3.38,0-5.86-2.31-5.86-5.52s2.53-5.65,5.96-5.65c1.67,0,2.76.45,3.49,1.03l-.73,1.2c-.47-.37-1.27-.94-2.83-.94-2.51,0-4.22,1.71-4.22,4.2s1.85,4.41,4.45,4.41c0,0,1.83,0,2.86-.82l.61,1.07c-1.31,1.03-3.73,1.03-3.73,1.03Z"/><path class="cls-1" d="m177.35,63.09l-3.3-4.39h-1.78v4.39h-1.62v-10.72s1.22-.08,3-.08c3.07,0,4.41,1.07,4.41,3.08,0,1-.49,2.39-2.42,2.99l3.66,4.73h-1.95Zm-3.63-9.61c-.72,0-1.45.06-1.45.06v4.02h1.85c1.08,0,2.25-.6,2.25-2.08s-.85-2-2.65-2Z"/><path class="cls-1" d="m194.22,63.09l-1.36-3.18h-5.02l-1.36,3.18h-1.53l4.81-10.96h1.43l4.78,10.96h-1.74Zm-3.87-9.19l-2.02,4.84h4.05l-2.02-4.84Z"/><path class="cls-1" d="m204.61,53.55v3.42h3.96v1.21h-3.96v4.91h-1.61v-10.75h6.07v1.21h-4.46Z"/><path class="cls-1" d="m220.81,53.53v9.57h-1.6v-9.57h-3.99v-1.19h9.59v1.19h-3.99Z"/><path class="cls-1" d="m234.55,63.32c-1.2,0-2.32-.34-3.37-1.08l.31-1.5c1.01.92,2.09,1.29,3.21,1.29,1.24,0,2.06-.63,2.06-1.71,0-.78-.49-1.29-1.74-1.82l-1.05-.42c-1.57-.65-2.46-1.52-2.46-2.94,0-1.86,1.45-3.02,3.49-3.02,1.12,0,2.2.37,2.95,1.05l-.64,1.21c-.82-.68-1.62-.97-2.41-.97-1.05,0-1.8.61-1.8,1.52,0,.52.23,1.02.73,1.32.4.24.58.32,2.06.95,1.81.78,2.48,1.58,2.48,2.97,0,1.87-1.59,3.15-3.82,3.15Z"/></g><g><path class="cls-1" d="m33.37,63.09l-1.36-3.18h-5.02l-1.36,3.18h-1.53l4.81-10.96h1.43l4.78,10.96h-1.74Zm-3.87-9.19l-2.02,4.84h4.05l-2.02-4.84Z"/><path class="cls-1" d="m48.86,63.09l-3.3-4.39h-1.78v4.39h-1.62v-10.72s1.22-.08,3-.08c3.07,0,4.41,1.07,4.41,3.08,0,1-.49,2.39-2.42,2.99l3.66,4.73h-1.95Zm-3.63-9.61c-.72,0-1.45.06-1.45.06v4.02h1.85c1.08,0,2.25-.6,2.25-2.08s-.85-2-2.65-2Z"/><path class="cls-1" d="m62.18,53.53v9.57h-1.6v-9.57h-3.99v-1.19h9.59v1.19h-3.99Z"/><path class="cls-1" d="m86.49,63.09c-.33-.31-.65-.63-1.1-1.05-1.01.86-2.13,1.23-3.44,1.23-2.29,0-3.61-1.42-3.61-3.05,0-1.48.96-2.49,2.28-3.18l.02-.05c-.61-.69-.98-1.5-.98-2.28,0-1.32,1.03-2.68,2.98-2.68,1.45,0,2.6.89,2.6,2.31,0,1.15-.71,2.05-2.58,2.91v.05c.99,1.07,2.11,2.24,2.88,3.04.52-.76.89-1.81,1.12-3.18h1.39c-.31,1.71-.82,3.05-1.71,4.02.65.61,1.24,1.23,1.97,1.92h-1.83Zm-1.85-1.87c-.7-.71-2.02-2.03-3.31-3.42-.65.37-1.52,1.07-1.52,2.21,0,1.24.99,2.2,2.39,2.2,1.05,0,1.87-.42,2.44-.99Zm-3.59-6.63c0,.78.4,1.37.91,1.97,1.19-.65,1.95-1.21,1.95-2.15,0-.66-.42-1.4-1.36-1.4s-1.5.76-1.5,1.58Z"/></g></svg>