<?xml version="1.0" encoding="UTF-8"?><svg id="Layer_1" xmlns="http://www.w3.org/2000/svg" viewBox="0 0 178.58 178.58"><rect width="178.58" height="178.58" style="fill:#00637c; stroke-width:0px;"/><path d="M106.96,35.1c3.25-2.77,7.89-2.74,11.99,2.08,2.74,3.21,3.69,5.52,4.41,8.89,3.42-2.91,4.46-7.61.86-11.82-4.62-5.42-14.34-5.47-20.18-.49-8.87,7.55-8.83,19.42-1.8,33.65-.68,1.54-1.41,3.21-2.21,5.03-5.04,11.48-9.82,22.29-14.33,32.44h-.3c-5.9-12.94-11.04-24.36-15.4-34.28-4.36-9.92-6.71-15.26-7.04-16.02l-7.91,1.14c-.27,1.19-1.84,8.81-4.73,22.84-2.89,14.03-5.99,28.19-9.3,42.49l7.64,1.39c2.26-12.64,4.63-24.88,7.12-36.7,2.49-11.83,3.84-18.17,4.03-19.04h.1c.83,1.76,3.63,7.94,8.41,18.54,4.78,10.6,9.14,20.46,13.09,29.59h6.87c4.21-9.86,8.55-19.68,13-29.47,1.95-4.29,3.59-7.89,4.93-10.82,3,4.83,6.69,9.88,11.02,15.07,12.49,15,24.56,37.75,9.38,50.68-9.01,7.67-20.14,6.42-26.13-.6-2.14-2.51-3.86-5.2-4.06-7.8.85.32,2.02,0,2.61-.49,1.67-1.42,1.38-3.95-.33-5.96-1.88-2.21-4.58-2.68-7.08-.55-2.92,2.49-1.84,7.63,2.09,12.25,9.58,11.24,23.25,13.45,33.34,4.85,12.42-10.58,18.02-28.51-3.74-57.43-13.19-17.51-29.38-38.37-16.37-49.45Z" style="fill:#fff; stroke-width:0px;"/><path d="M170.06,170.06H8.53V8.53h161.53v161.53ZM12.47,166.11h153.64V12.47H12.47v153.64Z" style="fill:#fff; stroke-width:0px;"/></svg>