<?xml version="1.0" encoding="UTF-8"?><svg id="Layer_1" xmlns="http://www.w3.org/2000/svg" viewBox="0 0 150.88 150.88"><path d="M75.44,150.88C33.84,150.88,0,117.04,0,75.44S33.84,0,75.44,0s75.44,33.84,75.44,75.44-33.84,75.44-75.44,75.44ZM75.44,4C36.05,4,4,36.05,4,75.44s32.05,71.44,71.44,71.44,71.44-32.05,71.44-71.44S114.83,4,75.44,4Z" style="fill:#f37837; stroke-width:0px;"/><path d="M75.44,150.88C33.84,150.88,0,117.04,0,75.44S33.84,0,75.44,0s75.44,33.84,75.44,75.44-33.84,75.44-75.44,75.44ZM75.44,4C36.05,4,4,36.05,4,75.44s32.05,71.44,71.44,71.44,71.44-32.05,71.44-71.44S114.83,4,75.44,4Z" style="fill:#f37837; stroke-width:0px;"/><circle cx="61.85" cy="52.43" r="31.88" style="fill:#f37837; stroke-width:0px;"/><circle cx="101.24" cy="75.68" r="31.88" style="fill:#0875bb; stroke-width:0px;"/><circle cx="62.1" cy="98.11" r="31.88" style="fill:#c6e9fa; stroke-width:0px;"/><circle cx="61.85" cy="52.43" r="31.88" style="fill:#f37837; stroke-width:0px;"/><circle cx="101.24" cy="75.68" r="31.88" style="fill:#0875bb; stroke-width:0px;"/><circle cx="62.1" cy="98.11" r="31.88" style="fill:#c6e9fa; stroke-width:0px;"/></svg>