<?xml version="1.0" encoding="UTF-8"?><svg id="Layer_1" xmlns="http://www.w3.org/2000/svg" viewBox="0 0 151.4 151.4"><circle cx="75.7" cy="75.7" r="73.7" style="fill:none; stroke:#f37837; stroke-miterlimit:10; stroke-width:4px;"/><circle cx="67.68" cy="32.38" r="16.91" style="fill:#f37837; stroke-width:0px;"/><circle cx="88.57" cy="44.71" r="16.91" style="fill:#0875bb; stroke-width:0px;"/><circle cx="67.82" cy="56.61" r="16.91" style="fill:#c6e9fa; stroke-width:0px;"/><path d="M30.88,110.5c-.76.36-1.59.65-2.49.85s-1.94.3-3.12.3-2.3-.19-3.3-.58-1.85-.92-2.56-1.62-1.27-1.52-1.67-2.48c-.4-.96-.6-2.02-.6-3.18s.21-2.26.62-3.22c.41-.96.98-1.77,1.7-2.45.72-.67,1.57-1.19,2.55-1.55.98-.36,2.04-.55,3.19-.55s2.28.17,3.27.51c.99.34,1.78.79,2.38,1.35l-1.83,1.97c-.38-.42-.91-.78-1.58-1.07-.68-.29-1.42-.44-2.22-.44s-1.5.14-2.13.42c-.64.28-1.18.67-1.63,1.16-.45.49-.79,1.06-1.04,1.72-.24.66-.37,1.37-.37,2.14s.12,1.53.37,2.19c.25.67.6,1.24,1.05,1.73.46.49,1.01.87,1.66,1.14.65.27,1.39.41,2.22.41,1.13,0,2.12-.17,2.96-.52v-3.78h-3.13v-2.18h5.69v7.71Z" style="fill:#f37837; stroke-width:0px;"/><path d="M37.14,96.41h9.85v2.31h-7.2v3.78h6.82v2.23h-6.82v4.2h7.58v2.35h-10.23v-14.87Z" style="fill:#f37837; stroke-width:0px;"/><path d="M55.99,98.72h-4.56v-2.31h11.76v2.31h-4.56v12.56h-2.65v-12.56Z" style="fill:#f37837; stroke-width:0px;"/><path d="M71.37,96.41h2.29l6.4,14.87h-3.02l-1.39-3.4h-6.45l-1.34,3.4h-2.96l6.47-14.87ZM74.73,105.61l-2.29-6.05-2.33,6.05h4.62Z" style="fill:#f37837; stroke-width:0px;"/><path d="M82.81,96.41h2.9l2.88,10.92h.04l3.28-10.92h2.73l3.21,10.92h.04l2.94-10.92h2.81l-4.35,14.87h-2.56l-3.49-11.15h-.04l-3.49,11.15h-2.56l-4.35-14.87Z" style="fill:#f37837; stroke-width:0px;"/><path d="M112.86,96.41h2.29l6.4,14.87h-3.02l-1.39-3.4h-6.45l-1.34,3.4h-2.96l6.47-14.87ZM116.22,105.61l-2.29-6.05-2.33,6.05h4.62Z" style="fill:#f37837; stroke-width:0px;"/><path d="M128.4,104.83l-5.59-8.42h3.23l3.74,6.26,3.78-6.26h3.07l-5.59,8.42v6.45h-2.65v-6.45Z" style="fill:#f37837; stroke-width:0px;"/><path d="M72.31,89.74l-.93.18-1.17-6.38h0c-.15.3-.48,1.01-.98,2.13-.51,1.12-1,2.24-1.48,3.37h-.78c-.45-1.04-.95-2.17-1.49-3.38-.55-1.21-.87-1.92-.96-2.12h-.01c-.02.1-.18.82-.46,2.17s-.56,2.75-.81,4.19l-.87-.16c.38-1.63.73-3.25,1.06-4.85.33-1.6.51-2.47.54-2.61l.9-.13c.04.09.31.7.8,1.83.5,1.13,1.08,2.44,1.76,3.91h.03c.51-1.16,1.06-2.39,1.64-3.7.58-1.31.88-1.99.9-2.04l.86.07c.01.08.17.91.47,2.49.3,1.58.64,3.25,1.01,5.02Z" style="fill:#1c2d5b; stroke-width:0px;"/><path d="M75.09,89.86h-.94c0-.23,0-.63.02-1.22,0-.58.01-1.42.01-2.51,0-.43,0-1,0-1.7,0-.7-.01-1.43-.02-2.18h.94c0,.54-.01,1.17-.02,1.89,0,.72,0,1.3,0,1.76,0,1.15,0,2.04.01,2.67,0,.63.01,1.06.02,1.29Z" style="fill:#1c2d5b; stroke-width:0px;"/><path d="M84.28,82.25c0,.59-.01,1.27-.02,2.04,0,.77,0,1.32,0,1.65,0,1.08,0,1.93.01,2.57,0,.63.01.97.01,1.01l-.76.37c-1.14-1.55-2.21-2.94-3.21-4.18-.99-1.24-1.57-1.96-1.72-2.16h-.01c0,1.02,0,2.27.02,3.75.01,1.48.02,2.33.03,2.56h-.89c0-.09,0-.43.02-1.01,0-.58.01-1.39.01-2.42,0-.41,0-.96,0-1.65s-.01-1.41-.02-2.17l.86-.41c.07.09.65.82,1.74,2.21,1.09,1.39,2.12,2.67,3.09,3.86h.01c0-.59,0-1.57-.02-2.95-.02-1.38-.02-2.4-.02-3.07h.89Z" style="fill:#1c2d5b; stroke-width:0px;"/><path d="M93.11,82.25c0,.73,0,1.33-.01,1.8,0,.48-.01.89-.01,1.24,0,.43,0,.8,0,1.11s0,.57,0,.79c0,.44-.07.83-.2,1.16-.13.34-.33.63-.59.88-.27.25-.59.45-.98.59-.39.14-.83.21-1.34.21s-.95-.07-1.34-.21c-.39-.14-.71-.34-.98-.59-.27-.25-.46-.54-.59-.88-.13-.34-.2-.72-.2-1.16,0-.22,0-.49,0-.79s0-.67,0-1.11c0-.35,0-.77-.01-1.24,0-.48-.01-1.08-.01-1.8h.94c0,.09,0,.42-.01.97,0,.55,0,1.28,0,2.17,0,.27,0,.55,0,.85s0,.59,0,.9c0,.69.2,1.22.6,1.58.4.36.94.54,1.61.54.73,0,1.29-.17,1.65-.51.37-.34.55-.88.55-1.6,0-.31,0-.61,0-.9s0-.57,0-.85c0-.9,0-1.63-.01-2.2,0-.57-.01-.88-.01-.94h.94Z" style="fill:#1c2d5b; stroke-width:0px;"/><path d="M108.15,89.04l-.88.46s-.14-.32-.36-.85c-.23-.52-.53-1.2-.9-2.02h-3.36c-.4.88-.71,1.57-.92,2.05-.22.48-.34.76-.36.81l-.76-.41c.1-.2.5-1.06,1.22-2.6.71-1.54,1.46-3.16,2.22-4.85h.74c.76,1.7,1.5,3.34,2.23,4.93.73,1.59,1.11,2.42,1.14,2.48ZM105.68,85.91c-.2-.46-.41-.95-.64-1.45-.22-.5-.46-1.03-.7-1.58h-.02c-.19.42-.42.93-.69,1.54-.27.61-.49,1.1-.67,1.49h0s2.72,0,2.72,0h0Z" style="fill:#1c2d5b; stroke-width:0px;"/><path d="M115.89,85.58c0,.67-.16,1.25-.49,1.76-.33.5-.75.91-1.27,1.22-.45.27-.96.47-1.52.61s-1.19.21-1.88.21c-.26,0-.52,0-.78-.01-.25,0-.39-.01-.42-.01,0-.02,0-.46.01-1.31,0-.85.01-1.66.01-2.43,0-.41,0-.93,0-1.56,0-.64-.01-1.41-.03-2.32.04,0,.21,0,.52,0,.31,0,.47,0,.5,0,.78,0,1.48.07,2.09.21.61.14,1.15.36,1.63.66.55.35.96.78,1.23,1.27s.4,1.07.4,1.71ZM114.93,85.58c0-.49-.11-.94-.32-1.34-.21-.4-.55-.75-1-1.03-.43-.27-.9-.46-1.42-.56s-.99-.16-1.42-.16h-.3c0,.6-.01,1.09-.01,1.49,0,.39,0,.71,0,.94,0,.17,0,.56,0,1.17,0,.61,0,1.46,0,2.54h.29c.49,0,.99-.06,1.48-.17.5-.12.91-.28,1.25-.48.43-.26.78-.58,1.04-.98.26-.4.39-.87.39-1.41Z" style="fill:#1c2d5b; stroke-width:0px;"/><path d="M124.35,89.04l-.88.46s-.14-.32-.36-.85c-.23-.52-.53-1.2-.9-2.02h-3.36c-.4.88-.71,1.57-.92,2.05-.22.48-.34.76-.36.81l-.76-.41c.1-.2.5-1.06,1.22-2.6.71-1.54,1.46-3.16,2.22-4.85h.74c.76,1.7,1.5,3.34,2.23,4.93.73,1.59,1.11,2.42,1.14,2.48ZM121.88,85.91c-.2-.46-.41-.95-.64-1.45-.22-.5-.46-1.03-.7-1.58h-.02c-.19.42-.42.93-.69,1.54-.27.61-.49,1.1-.67,1.49h0s2.72,0,2.72,0h0Z" style="fill:#1c2d5b; stroke-width:0px;"/><path d="M134.91,89.23l-.93.18-1.17-6.38h0c-.15.3-.48,1.01-.98,2.13-.51,1.12-1,2.24-1.48,3.37h-.78c-.45-1.04-.95-2.17-1.49-3.38-.55-1.21-.87-1.92-.96-2.12h-.01c-.02.1-.18.82-.46,2.17s-.56,2.75-.81,4.19l-.87-.16c.38-1.63.73-3.25,1.06-4.85.33-1.6.51-2.47.54-2.61l.9-.13c.04.09.31.7.8,1.83s1.08,2.44,1.76,3.91h.03c.52-1.16,1.06-2.39,1.64-3.7.58-1.31.88-1.99.9-2.04l.86.07c.01.08.17.91.47,2.49.3,1.58.64,3.25,1.01,5.02Z" style="fill:#1c2d5b; stroke-width:0px;"/><path d="M94.02,91.77c.25.3.29.68.04.89-.09.07-.26.12-.39.07.03.39.28.79.6,1.17.89,1.06,2.55,1.25,3.9.12,2.28-1.91.5-5.33-1.35-7.58-2.95-3.59-3.89-6.69-1.91-8.35.88-.74,2.33-.72,3.01.09.53.63.37,1.33-.14,1.76-.1-.5-.24-.85-.65-1.33-.61-.72-1.3-.73-1.79-.32-1.95,1.64.44,4.77,2.39,7.4,3.22,4.34,2.37,7.01.5,8.58-1.52,1.27-3.56.93-4.97-.76-.58-.69-.74-1.46-.3-1.83.38-.32.78-.24,1.06.09Z" style="fill:#1c2d5b; stroke-width:0px;"/></svg>