<?xml version="1.0" encoding="UTF-8"?><svg id="Layer_1" xmlns="http://www.w3.org/2000/svg" viewBox="0 0 147.4 147.4"><path d="M85.52,27.67c2.78-2.37,6.74-2.34,10.25,1.78,2.34,2.75,3.16,4.72,3.77,7.6,2.92-2.49,3.81-6.5.74-10.11-3.95-4.63-12.26-4.67-17.25-.42-7.58,6.46-7.55,16.6-1.54,28.77-.58,1.32-1.21,2.74-1.89,4.3-4.31,9.81-8.4,19.06-12.25,27.74h-.26c-5.05-11.06-9.44-20.83-13.17-29.31-3.73-8.48-5.74-13.05-6.02-13.7l-6.76.98c-.23,1.02-1.57,7.53-4.04,19.53-2.47,12-5.12,24.11-7.95,36.33l6.53,1.19c1.93-10.81,3.96-21.27,6.09-31.38,2.13-10.11,3.28-15.54,3.45-16.28h.09c.71,1.51,3.11,6.79,7.19,15.85,4.09,9.06,7.82,17.5,11.19,25.3h5.87c3.6-8.43,7.31-16.83,11.11-25.2,1.67-3.67,3.07-6.75,4.22-9.25,2.56,4.13,5.72,8.45,9.42,12.89,10.68,12.82,21,32.28,8.02,43.33-7.7,6.56-17.22,5.49-22.34-.52-1.83-2.15-3.3-4.45-3.47-6.67.72.27,1.73,0,2.23-.42,1.43-1.21,1.18-3.38-.28-5.09-1.61-1.89-3.92-2.29-6.06-.47-2.5,2.13-1.58,6.53,1.79,10.47,8.19,9.61,19.88,11.5,28.51,4.15,10.62-9.05,15.4-24.38-3.2-49.11-11.28-14.97-25.12-32.81-14-42.28Z" style="fill:#00637c; stroke-width:0px;"/><path d="M73.7,0C33.06,0,0,33.06,0,73.7s33.06,73.7,73.7,73.7,73.7-33.06,73.7-73.7S114.34,0,73.7,0ZM73.7,140.93c-37.07,0-67.23-30.16-67.23-67.23S36.63,6.47,73.7,6.47s67.23,30.16,67.23,67.23-30.16,67.23-67.23,67.23Z" style="fill:#00637c; stroke-width:0px;"/></svg>